<?xml version="1.0" encoding="UTF-8"?>
<svg version="1.1" xmlns="http://www.w3.org/2000/svg" width="32" height="32">
<path d="M0 0 C10.56 0 21.12 0 32 0 C32 10.56 32 21.12 32 32 C21.44 32 10.88 32 0 32 C0 21.44 0 10.88 0 0 Z " fill="#768DA7" transform="translate(0,0)"/>
<path d="M0 0 C7.59 0 15.18 0 23 0 C22.67 0.66 22.34 1.32 22 2 C21.01 2 20.02 2 19 2 C18.67 2.99 18.34 3.98 18 5 C18 4.34 18 3.68 18 3 C17.46375 3.309375 16.9275 3.61875 16.375 3.9375 C13.6015043 5.17827439 10.99957163 5.5909675 8 6 C7.67 8.64 7.34 11.28 7 14 C8.32 13.67 9.64 13.34 11 13 C11 14.65 11 16.3 11 18 C10.67 17.34 10.34 16.68 10 16 C9.01 16 8.02 16 7 16 C7.254496 17.48206495 7.52911762 18.96068615 7.8125 20.4375 C8.03873047 21.67306641 8.03873047 21.67306641 8.26953125 22.93359375 C8.51058594 23.61550781 8.75164063 24.29742188 9 25 C9.99 25.33 10.98 25.66 12 26 C12.99 27.98 13.98 29.96 15 32 C10.05 32 5.1 32 0 32 C0 21.44 0 10.88 0 0 Z " fill="#294057" transform="translate(0,0)"/>
<path d="M0 0 C0.66 0.99 1.32 1.98 2 3 C1.67 3.33 1.34 3.66 1 4 C1.66 4 2.32 4 3 4 C3.33 3.01 3.66 2.02 4 1 C5.32 1 6.64 1 8 1 C8.03867187 2.48113281 8.03867187 2.48113281 8.078125 3.9921875 C8.13484375 5.27351562 8.1915625 6.55484375 8.25 7.875 C8.29640625 9.15117187 8.3428125 10.42734375 8.390625 11.7421875 C8.69226563 13.35480469 8.69226563 13.35480469 9 15 C10.32 15.66 11.64 16.32 13 17 C13 19.97 13 22.94 13 26 C9.04 26 5.08 26 1 26 C0.0234375 18.3828125 0.0234375 18.3828125 0 16 C0.66 15.34 1.32 14.68 2 14 C2.16681109 10.91652174 2.16681109 10.91652174 2 8 C0.35 7.67 -1.3 7.34 -3 7 C-3.1875 4.625 -3.1875 4.625 -3 2 C-2.01 1.34 -1.02 0.68 0 0 Z " fill="#496A7D" transform="translate(19,6)"/>
<path d="M0 0 C0.66 0 1.32 0 2 0 C2.33 0.66 2.66 1.32 3 2 C4.1446875 1.7525 4.1446875 1.7525 5.3125 1.5 C8 1 8 1 11 1 C11.125 4.375 11.125 4.375 11 8 C10.34 8.66 9.68 9.32 9 10 C8.75712511 12.44012949 8.75712511 12.44012949 8.875 15.125 C8.90207031 16.49011719 8.90207031 16.49011719 8.9296875 17.8828125 C8.95289063 18.58148437 8.97609375 19.28015625 9 20 C4.2109375 20.1640625 4.2109375 20.1640625 2.3125 18.6875 C1.13786774 17.17725852 0.06128953 15.5919343 -1 14 C-1.53625 13.5875 -2.0725 13.175 -2.625 12.75 C-4.7797799 10.00755285 -4.19024345 7.36096766 -4 4 C-3.01 4 -2.02 4 -1 4 C-0.67 2.68 -0.34 1.36 0 0 Z " fill="#BBC1C5" transform="translate(11,12)"/>
<path d="M0 0 C0.66 1.32 1.32 2.64 2 4 C3.32 3.67 4.64 3.34 6 3 C6 4.65 6 6.3 6 8 C5.67 7.34 5.34 6.68 5 6 C4.01 6 3.02 6 2 6 C2.254496 7.48206495 2.52911762 8.96068615 2.8125 10.4375 C3.03873047 11.67306641 3.03873047 11.67306641 3.26953125 12.93359375 C3.51058594 13.61550781 3.75164063 14.29742187 4 15 C4.99 15.33 5.98 15.66 7 16 C7.99 17.98 8.98 19.96 10 22 C5.05 22 0.1 22 -5 22 C-5 17.71 -5 13.42 -5 9 C-4.34 9 -3.68 9 -3 9 C-2.67 8.34 -2.34 7.68 -2 7 C-1.01 7.33 -0.02 7.66 1 8 C0.67 7.34 0.34 6.68 0 6 C-0.039992 4.00039988 -0.04346799 1.99952758 0 0 Z " fill="#283B51" transform="translate(5,10)"/>
<path d="M0 0 C1.98 0 3.96 0 6 0 C6 7.59 6 15.18 6 23 C4.35 22.67 2.7 22.34 1 22 C1 17.05 1 12.1 1 7 C-0.32 7.33 -1.64 7.66 -3 8 C-3 6.68 -3 5.36 -3 4 C-1.68 3.34 -0.36 2.68 1 2 C0.67 1.34 0.34 0.68 0 0 Z " fill="#728CA4" transform="translate(26,0)"/>
<path d="M0 0 C0.99 0.33 1.98 0.66 3 1 C3 1.99 3 2.98 3 4 C5.27837542 6.27837542 6.50812237 6.96646289 9.75 7.1875 C10.4925 7.125625 11.235 7.06375 12 7 C13.4783226 9.95664519 13.06032783 12.74229737 13 16 C8.47202797 16.36713287 8.47202797 16.36713287 6.3125 14.6875 C5.13786774 13.17725852 4.06128953 11.5919343 3 10 C2.46375 9.5875 1.9275 9.175 1.375 8.75 C-0.7797799 6.00755285 -0.19024345 3.36096766 0 0 Z " fill="#576C83" transform="translate(7,16)"/>
<path d="M0 0 C2.14336161 3.4766338 2.21277626 6.21229195 2.125 10.25 C2.10695313 11.32765625 2.08890625 12.4053125 2.0703125 13.515625 C2.04710937 14.33546875 2.02390625 15.1553125 2 16 C0.35 15.67 -1.3 15.34 -3 15 C-3.08107583 13.06318839 -3.13922475 11.1254066 -3.1875 9.1875 C-3.22230469 8.10855469 -3.25710937 7.02960937 -3.29296875 5.91796875 C-3 3 -3 3 -1.48828125 1.11328125 C-0.99714844 0.74589844 -0.50601562 0.37851563 0 0 Z " fill="#3F5A75" transform="translate(30,7)"/>
<path d="M0 0 C0.33 0 0.66 0 1 0 C1.02578125 0.75925781 1.0515625 1.51851562 1.078125 2.30078125 C1.13484375 3.29464844 1.1915625 4.28851563 1.25 5.3125 C1.29640625 6.29863281 1.3428125 7.28476562 1.390625 8.30078125 C1.75970238 11.13940092 1.75970238 11.13940092 4.046875 12.85546875 C5.01367188 13.42201172 5.01367188 13.42201172 6 14 C4.68 15.32 3.36 16.64 2 18 C-3.125 7.75 -3.125 7.75 -3 2 C-2.01 2.33 -1.02 2.66 0 3 C0 2.01 0 1.02 0 0 Z " fill="#2A435C" transform="translate(26,10)"/>
<path d="M0 0 C0.66 0.33 1.32 0.66 2 1 C1.67 2.051875 1.34 3.10375 1 4.1875 C-0.11364214 7.77634962 -0.11364214 7.77634962 0 10.6875 C0 13.323295 -0.67077801 14.7569379 -2 17 C-2.66 17 -3.32 17 -4 17 C-4.10794277 14.73020335 -4.18556176 12.45894804 -4.25 10.1875 C-4.29640625 8.92292969 -4.3428125 7.65835937 -4.390625 6.35546875 C-4 3 -4 3 -1.984375 1.05078125 C-1.32953125 0.70402344 -0.6746875 0.35726563 0 0 Z " fill="#122334" transform="translate(4,2)"/>
<path d="M0 0 C0.66 0.99 1.32 1.98 2 3 C1.67 3.33 1.34 3.66 1 4 C1.66 4 2.32 4 3 4 C3.33 3.01 3.66 2.02 4 1 C5.32 1 6.64 1 8 1 C7.67 2.98 7.34 4.96 7 7 C5.824375 6.9690625 5.824375 6.9690625 4.625 6.9375 C2.01885039 6.81315937 2.01885039 6.81315937 0 8 C-0.99 7.67 -1.98 7.34 -3 7 C-3.1875 4.625 -3.1875 4.625 -3 2 C-2.01 1.34 -1.02 0.68 0 0 Z " fill="#465873" transform="translate(19,6)"/>
<path d="M0 0 C2.31 0.33 4.62 0.66 7 1 C7 3.64 7 6.28 7 9 C6.67 8.01 6.34 7.02 6 6 C2.535 7.485 2.535 7.485 -1 9 C-0.67 6.03 -0.34 3.06 0 0 Z " fill="#617A9B" transform="translate(7,6)"/>
<path d="M0 0 C0.04898437 0.62648438 0.09796875 1.25296875 0.1484375 1.8984375 C0.22320313 2.71570313 0.29796875 3.53296875 0.375 4.375 C0.44460937 5.18710937 0.51421875 5.99921875 0.5859375 6.8359375 C0.82892588 9.20334191 0.82892588 9.20334191 3 11 C2.34 11 1.68 11 1 11 C1 11.66 1 12.32 1 13 C-0.32 13 -1.64 13 -3 13 C-3.2493357 11.39884424 -3.47378648 9.79379841 -3.6875 8.1875 C-3.81511719 7.29417969 -3.94273438 6.40085937 -4.07421875 5.48046875 C-4 3 -4 3 -2.58203125 1.17578125 C-1 0 -1 0 0 0 Z " fill="#193248" transform="translate(23,19)"/>
<path d="M0 0 C0.66 0.33 1.32 0.66 2 1 C2 3.31 2 5.62 2 8 C-0.375 8.125 -0.375 8.125 -3 8 C-3.66 7.34 -4.32 6.68 -5 6 C-5 4.68 -5 3.36 -5 2 C-2.625 0.9375 -2.625 0.9375 0 0 Z " fill="#A9B9BF" transform="translate(18,24)"/>
<path d="M0 0 C0.33 0.66 0.66 1.32 1 2 C1.78375 2.28875 2.5675 2.5775 3.375 2.875 C6.31501099 4.13500471 7.31463588 5.33889875 9 8 C6.03 8 3.06 8 0 8 C0 5.36 0 2.72 0 0 Z " fill="#162938" transform="translate(0,24)"/>
<path d="M0 0 C0.99 0.33 1.98 0.66 3 1 C2.50886719 1.53109375 2.01773437 2.0621875 1.51171875 2.609375 C-0.43009777 5.68015462 -0.30491694 7.64921396 -0.1875 11.25 C-0.14689453 12.86648438 -0.14689453 12.86648438 -0.10546875 14.515625 C-0.07066406 15.33546875 -0.03585937 16.1553125 0 17 C-1.32 16.67 -2.64 16.34 -4 16 C-3.32587732 10.4946648 -2.50344259 5.00688519 0 0 Z " fill="#1E3149" transform="translate(6,1)"/>
<path d="M0 0 C1.70840281 1.63412443 2.93453047 2.86906094 4 5 C6.01669827 6.13350534 6.01669827 6.13350534 8 7 C8 7.66 8 8.32 8 9 C8.66 9 9.32 9 10 9 C9.67 9.99 9.34 10.98 9 12 C1.31509847 7.06345733 1.31509847 7.06345733 0 2.625 C0 1.75875 0 0.8925 0 0 Z " fill="#7D979D" transform="translate(0,20)"/>
<path d="M0 0 C0 2.64 0 5.28 0 8 C-0.33 7.01 -0.66 6.02 -1 5 C-2.32 5.33 -3.64 5.66 -5 6 C-4.67 4.35 -4.34 2.7 -4 1 C-1 0 -1 0 0 0 Z " fill="#536A85" transform="translate(14,7)"/>
<path d="M0 0 C3.01327566 1.50663783 3.61056618 4.03166411 5 7 C3.35 7 1.7 7 0 7 C-0.38133299 5.0085944 -0.71325582 3.00720923 -1 1 C-0.67 0.67 -0.34 0.34 0 0 Z " fill="#2E4A5E" transform="translate(10,25)"/>
<path d="M0 0 C0.66 0.99 1.32 1.98 2 3 C1.34 3.66 0.68 4.32 0 5 C-0.33 5.66 -0.66 6.32 -1 7 C-1.66 7 -2.32 7 -3 7 C-3.1875 4.625 -3.1875 4.625 -3 2 C-2.01 1.34 -1.02 0.68 0 0 Z " fill="#5A6E88" transform="translate(19,6)"/>
<path d="M0 0 C0.66 0 1.32 0 2 0 C2 2.31 2 4.62 2 7 C1.34 7 0.68 7 0 7 C-0.38133299 5.0085944 -0.71325582 3.00720923 -1 1 C-0.67 0.67 -0.34 0.34 0 0 Z " fill="#829CA5" transform="translate(30,16)"/>
<path d="M0 0 C1.98 0 3.96 0 6 0 C5.67 1.32 5.34 2.64 5 4 C4.01 4 3.02 4 2 4 C1.34 2.68 0.68 1.36 0 0 Z " fill="#324959" transform="translate(26,0)"/>
</svg>
